PathFileType	4	(X/Y/Z)	/Users/itak/Documents/Research/Walk-IL/dataset/trc/00250_00009.trc
DataRate	CameraRate	NumFrames	NumMarkers	Units	OrigDataRate	OrigDataStartFrame	OrigNumFrames
100.000000	100.000000	4	53	mm	100.000000	494	565
Frame#	Time	RPSI			LPSI			L3			STRN			T10			C7			CLAV			RBAK			LBAK			LSHO			LUPA			LAEL			LAOL			LWTS			LWPS			LFRA			LIFD			LHPS			LHTS			RSHO			RUPA			RAEL			RAOL			RWTS			RWPS			RFRA			RHTS			RHPS			RBHD			LFHD			RFHD			LBHD			LHIP			RHIP			RASI			LASI			LKNE			LTHI			LANK			LTIP			LTOE			LMT1			LMT5			LHEE			RKNE			RTHI			RANK			RTIP			RTOE			RMT1			RMT5			RHEE			RIFD			
		X1	Y1	Z1	X2	Y2	Z2	X3	Y3	Z3	X4	Y4	Z4	X5	Y5	Z5	X6	Y6	Z6	X7	Y7	Z7	X8	Y8	Z8	X9	Y9	Z9	X10	Y10	Z10	X11	Y11	Z11	X12	Y12	Z12	X13	Y13	Z13	X14	Y14	Z14	X15	Y15	Z15	X16	Y16	Z16	X17	Y17	Z17	X18	Y18	Z18	X19	Y19	Z19	X20	Y20	Z20	X21	Y21	Z21	X22	Y22	Z22	X23	Y23	Z23	X24	Y24	Z24	X25	Y25	Z25	X26	Y26	Z26	X27	Y27	Z27	X28	Y28	Z28	X29	Y29	Z29	X30	Y30	Z30	X31	Y31	Z31	X32	Y32	Z32	X33	Y33	Z33	X34	Y34	Z34	X35	Y35	Z35	X36	Y36	Z36	X37	Y37	Z37	X38	Y38	Z38	X39	Y39	Z39	X40	Y40	Z40	X41	Y41	Z41	X42	Y42	Z42	X43	Y43	Z43	X44	Y44	Z44	X45	Y45	Z45	X46	Y46	Z46	X47	Y47	Z47	X48	Y48	Z48	X49	Y49	Z49	X50	Y50	Z50	X51	Y51	Z51	X52	Y52	Z52	X53	Y53	Z53	

495	4.94	-33.1485595703125	1046.399047851562	924.020751953125	86.85375213623047	1051.483520507812	918.1301879882812	42.06916427612305	1127.756591796875	912.9721069335938	53.08547592163086	1327.424194335938	1159.100219726562	32.79731369018555	1254.26171875	909.6610107421875	37.22139739990234	1518.714233398438	957.679443359375	47.35467147827148	1442.729125976562	1126.2060546875	-37.64892196655273	1374.533935546875	895.7793579101562	145.5994873046875	1479.397705078125	930.7633666992188	207.2596588134766	1484.424072265625	1014.647521972656	282.2987976074219	1364.532348632812	986.567626953125	314.4840698242188	1156.614990234375	1015.755981445312	260.3601684570312	1132.30126953125	951.6849975585938	265.1117553710938	942.151123046875	1147.337036132812	340.5934143066406	918.682373046875	1116.98583984375	330.0718994140625	1053.5830078125	1051.998413085938	269.544677734375	752.1907958984375	1187.780151367188	336.8747253417969	835.1109619140625	1150.164184570312	289.5312194824219	849.0647583007812	1197.5166015625	-128.5139465332031	1480.721313476562	1026.4560546875	-196.3108367919922	1414.974243164062	1012.824829101562	-231.5931091308594	1133.1201171875	999.529052734375	-141.4784851074219	1126.191650390625	969.0047607421875	-184.4396362304688	933.4948120117188	1155.0634765625	-247.0315246582031	911.1507568359375	1102.970092773438	-243.0220794677734	1066.427124023438	1031.189575195312	-197.4990234375	817.1580200195312	1206.548583984375	-247.0975341796875	810.1336059570312	1153.583129882812	-10.3621187210083	1681.755126953125	1001.130676269531	83.96131896972656	1724.948486328125	1202.993530273438	-15.61313247680664	1719.795654296875	1203.057739257812	122.4712600708008	1693.548706054688	1045.978515625	233.0593872070312	993.3084716796875	1012.667297363281	-136.1904449462891	1007.3603515625	1030.0478515625	-92.22240447998047	1054.565063476562	1120.763793945312	189.2621154785156	1039.784545898438	1112.758666992188	191.217041015625	513.3921508789062	1106.528442382812	221.4608764648438	655.217041015625	1084.037719726562	180.7960357666016	35.88666534423828	1043.268798828125	195.5281829833984	285.9073181152344	1072.316772460938	117.1764526367188	44.44051361083984	1256.807739257812	76.80802154541016	39.76359176635742	1186.255126953125	193.1677398681641	37.10371017456055	1171.823486328125	130.7832489013672	42.35867691040039	979.892333984375	-79.06891632080078	522.0447387695312	1099.961547851562	-130.3981628417969	787.4771118164062	1102.6298828125	-50.76267242431641	37.88979721069336	1036.20556640625	-56.6074333190918	402.2062683105469	1109.322143554688	11.14214706420898	45.57175445556641	1243.791137695312	49.79182434082031	41.72293472290039	1183.73388671875	-66.08888244628906	40.42711639404297	1147.959228515625	1.829433441162109	34.71611022949219	968.9290161132812	-173.8309783935547	742.7064208984375	1190.4521484375	
496	4.95	-32.32022857666016	1046.85302734375	926.068603515625	87.74173736572266	1051.91943359375	920.0977172851562	43.1065673828125	1127.793212890625	914.8847045898438	54.0125732421875	1327.951293945312	1160.625122070312	34.0472412109375	1254.265014648438	911.4473876953125	38.70489883422852	1518.799560546875	958.7762451171875	48.33953857421875	1443.180541992188	1127.478637695312	-35.95468902587891	1374.561401367188	896.962646484375	147.1138305664062	1479.383422851562	932.2239990234375	208.5185089111328	1484.577758789062	1016.264038085938	283.6648254394531	1364.622314453125	988.57177734375	315.6266784667969	1156.744995117188	1018.096252441406	261.6463928222656	1132.396606445312	953.9014892578125	265.963623046875	942.2142944335938	1149.527465820312	341.5092468261719	918.7709350585938	1119.30908203125	331.1442260742188	1053.718505859375	1054.353759765625	270.3492431640625	752.1148071289062	1189.55419921875	337.708740234375	835.1444091796875	1152.33984375	290.2627563476562	848.9749145507812	1199.5751953125	-127.2864227294922	1480.968383789062	1027.045288085938	-195.0045928955078	1415.128662109375	1013.134094238281	-229.4277648925781	1133.26513671875	998.9976196289062	-138.9660491943359	1126.5654296875	969.4074096679688	-183.9485168457031	932.4136352539062	1153.524291992188	-246.0947570800781	910.7371826171875	1100.681396484375	-241.0970153808594	1066.4384765625	1030.20947265625	-197.6267242431641	815.661865234375	1203.852783203125	-246.7344055175781	809.1705932617188	1150.341918945312	-8.827832221984863	1681.812255859375	1001.570983886719	85.23822784423828	1725.787353515625	1203.372192382812	-14.33498382568359	1720.784057617188	1203.28271484375	123.959587097168	1693.666625976562	1046.567993164062	233.9644012451172	993.6148681640625	1014.459228515625	-135.1833343505859	1007.68505859375	1032.047973632812	-91.36683654785156	1054.860229492188	1122.876098632812	190.2019195556641	1039.982666015625	1114.62109375	192.0675659179688	512.9595336914062	1105.083984375	222.6593475341797	655.1712646484375	1083.807983398438	180.9280242919922	35.78960800170898	1043.21337890625	196.0012054443359	285.7946166992188	1071.21044921875	117.1862640380859	44.46702575683594	1256.815795898438	76.85120391845703	39.83271789550781	1186.220825195312	193.23095703125	37.08137512207031	1171.781860351562	130.8310089111328	42.22186279296875	979.8881225585938	-78.76420593261719	522.0721435546875	1099.804077148438	-129.7035369873047	787.65185546875	1103.880126953125	-50.75131988525391	37.91572570800781	1036.168212890625	-56.38218688964844	402.3320922851562	1108.906127929688	11.14307594299316	45.62205123901367	1243.732543945312	49.79219436645508	41.67978668212891	1183.615112304688	-66.04799652099609	40.47383880615234	1147.95703125	1.827909231185913	34.64749908447266	968.9448852539062	-173.8900451660156	741.272216796875	1187.277954101562	
497	4.96	-31.47319602966309	1047.299560546875	928.0674438476562	88.63944244384766	1052.334838867188	922.0221557617188	44.14603424072266	1127.8359375	916.7772216796875	54.93318557739258	1328.420288085938	1162.124633789062	35.25822448730469	1254.239013671875	913.2079467773438	40.14486312866211	1518.8623046875	959.8644409179688	49.31266403198242	1443.578247070312	1128.741943359375	-34.34275436401367	1374.57958984375	898.1338500976562	148.5664825439453	1479.33349609375	933.6574096679688	209.7357025146484	1484.680786132812	1017.842224121094	284.9954223632812	1364.666625976562	990.5155639648438	316.7813415527344	1156.831787109375	1020.363525390625	262.9484558105469	1132.450805664062	956.038818359375	266.8290405273438	942.1871337890625	1151.578125	342.4774169921875	918.8054809570312	1121.50830078125	332.2297668457031	1053.8037109375	1056.614379882812	271.2230529785156	751.952880859375	1191.149780273438	338.5882873535156	835.1118774414062	1154.36865234375	291.0038757324219	848.789794921875	1201.486938476562	-126.0867538452148	1481.20166015625	1027.697998046875	-193.7460021972656	1415.278442382812	1013.524291992188	-227.3244781494141	1133.41796875	998.4969482421875	-136.5524597167969	1126.951904296875	969.8074340820312	-183.4981231689453	931.278564453125	1151.9384765625	-245.2893981933594	910.3372802734375	1098.3154296875	-239.2351837158203	1066.44482421875	1029.238891601562	-197.7414703369141	814.1124267578125	1201.051513671875	-246.3371124267578	808.1632690429688	1147.005615234375	-7.327283382415771	1681.802612304688	1001.972106933594	86.50836181640625	1726.635131835938	1203.688842773438	-13.07777976989746	1721.77099609375	1203.473266601562	125.4130325317383	1693.738525390625	1047.100341796875	234.8567199707031	993.8580932617188	1016.228637695312	-134.19091796875	1008.004333496094	1033.99951171875	-90.52674865722656	1055.150024414062	1124.937744140625	191.098876953125	1040.10009765625	1116.46435546875	192.8409729003906	512.489501953125	1103.490844726562	223.8130645751953	655.0339965820312	1083.420776367188	181.0198974609375	35.69430923461914	1043.148193359375	196.4609832763672	285.6828002929688	1069.975219726562	117.1930541992188	44.47269821166992	1256.83251953125	76.88462829589844	39.88617324829102	1186.186889648438	193.2781372070312	37.06472015380859	1171.739013671875	130.8410797119141	42.08405685424805	979.869873046875	-78.48932647705078	522.07763671875	1099.5849609375	-129.081787109375	787.7930908203125	1104.934326171875	-50.73052978515625	37.93643188476562	1036.107666015625	-56.20885467529297	402.4226989746094	1108.461669921875	11.13280582427979	45.67317962646484	1243.673950195312	49.77764511108398	41.65790176391602	1183.506225585938	-66.01661682128906	40.52185821533203	1147.935424804688	1.828911662101746	34.5736198425293	968.9595947265625	-173.9219512939453	739.8202514648438	1183.9814453125	
498	4.97	-30.59623527526855	1047.7255859375	929.9969482421875	89.5445556640625	1052.718017578125	923.901123046875	45.18927764892578	1127.874877929688	918.6383056640625	55.8426513671875	1328.824584960938	1163.601684570312	36.43315887451172	1254.181396484375	914.9327392578125	41.53979110717773	1518.8994140625	960.9456787109375	50.2742919921875	1443.918212890625	1129.9951171875	-32.80563354492188	1374.581665039062	899.2928466796875	149.9594268798828	1479.244262695312	935.0603637695312	210.9200286865234	1484.7275390625	1019.375183105469	286.2843627929688	1364.656127929688	992.388916015625	317.9418640136719	1156.866333007812	1022.553649902344	264.2593383789062	1132.454467773438	958.0963134765625	267.7171325683594	942.0612182617188	1153.485229492188	343.5014953613281	918.7763061523438	1123.578247070312	333.3245849609375	1053.828735351562	1058.7763671875	272.1685485839844	751.7098388671875	1192.603149414062	339.5205078125	835.0083618164062	1156.259155273438	291.7646179199219	848.5211181640625	1203.2646484375	-124.9222946166992	1481.409301757812	1028.417236328125	-192.5304260253906	1415.416748046875	1013.990478515625	-225.3076477050781	1133.56591796875	998.0567626953125	-134.27490234375	1127.33740234375	970.197509765625	-183.0632629394531	930.08740234375	1150.323120117188	-244.5762023925781	909.9168090820312	1095.915405273438	-237.4714965820312	1066.44775390625	1028.302856445312	-197.8070068359375	812.4983520507812	1198.165161132812	-245.8977813720703	807.1146240234375	1143.618774414062	-5.86503791809082	1681.728149414062	1002.3447265625	87.76200866699219	1727.480346679688	1203.9580078125	-11.84788227081299	1722.741821289062	1203.6396484375	126.8266143798828	1693.764770507812	1047.5859375	235.7328186035156	994.041015625	1017.983825683594	-133.2053527832031	1008.304138183594	1035.860961914062	-89.69320678710938	1055.42041015625	1126.910278320312	191.9611663818359	1040.137329101562	1118.2919921875	193.5413665771484	511.9968872070312	1101.77490234375	224.8974609375	654.8204345703125	1082.885131835938	181.0786590576172	35.60087966918945	1043.071166992188	196.9158172607422	285.5785217285156	1068.625610351562	117.2101669311523	44.48052978515625	1256.835571289062	76.92112731933594	39.93739318847656	1186.145141601562	193.3175811767578	37.05133819580078	1171.690307617188	130.8233032226562	41.95148849487305	979.8323974609375	-78.22715759277344	522.0594482421875	1099.314819335938	-128.5595245361328	787.876953125	1105.788818359375	-50.69224548339844	37.95815277099609	1036.024780273438	-56.07940292358398	402.4801635742188	1108.01904296875	11.11331844329834	45.72449111938477	1243.615844726562	49.75234222412109	41.6528434753418	1183.40625	-65.99139404296875	40.57234954833984	1147.896606445312	1.836462736129761	34.50140380859375	968.967529296875	-173.9098815917969	738.34765625	1180.5830078125	
